<svg xmlns="http://www.w3.org/2000/svg" viewBox="0 0 58.83 50.16"><defs><style>.cls-1{fill:#5c6d77;}</style></defs><g id="Capa_2" data-name="Capa 2"><g id="Capa_1-2" data-name="Capa 1"><path class="cls-1" d="M.09,24.17l15.44,7.09L11.92,10.44l.2-.1,11,13q3-11.62,6.1-23.3l.23,0c2.24,7.72,4.31,15.49,6.11,23.4L46.74,10.34l.2.09q-1.8,10.42-3.61,20.84l15.42-7.08.08.11a.53.53,0,0,1-.08.17c-4.81,7.17-9.68,14.31-15,21.09a4.53,4.53,0,0,0-.83,1.35,3.06,3.06,0,0,1-1.78,1.85,20.49,20.49,0,0,1-8.05,1.39c-3.4,0-6.81.07-10.21-.07-1.62-.07-3.35-.12-4.72-1.23-.82-.66-1.8-1.19-2.15-2.3a.87.87,0,0,0-.17-.22C10.41,39.66,5.58,32.59.8,25.49L0,24.31ZM29.5,13.09h-.14l-.45,1.73C27,22.56,25,30.29,24.07,38.23a11.31,11.31,0,0,0,0,4.3,5.55,5.55,0,0,0,6.07,4.12,5.4,5.4,0,0,0,4.8-5.46,53.23,53.23,0,0,0-.87-7.78C33,28,31.76,22.63,30.56,17.25,30.25,15.85,29.86,14.47,29.5,13.09Zm8.78,24.52.11,0,3.13-15.59c-.21,0-.28.06-.34.13-1.46,1.78-2.93,3.56-4.38,5.35a.93.93,0,0,0-.15.67c.1.7.28,1.39.4,2.09C37.47,32.74,37.87,35.18,38.28,37.61ZM17.51,22l-.17.07,3.13,15.61c.62-3.08,1.14-6.13,1.71-9.16a1.3,1.3,0,0,0-.32-1.24c-1.21-1.44-2.39-2.91-3.59-4.36Zm1.24,22.65.05-.08c-.73-2.88-1.45-5.76-2.2-8.63a.91.91,0,0,0-.48-.44c-1.94-.95-3.9-1.89-5.85-2.83a2.9,2.9,0,0,0-.41-.16l-.09.11ZM40,44.54l.12.09,9-12-.15-.13-6.36,3.1a.83.83,0,0,0-.34.47c-.27,1-.48,2.06-.75,3.08C41,40.93,40.5,42.73,40,44.54Z"/></g></g></svg>