<svg xmlns="http://www.w3.org/2000/svg" viewBox="0 0 57.28 57.29"><defs><style>.cls-1{fill:#5c6d77;}</style></defs><g id="Capa_2" data-name="Capa 2"><g id="Capa_1-2" data-name="Capa 1"><path class="cls-1" d="M17.62,9.24h1.8a2.76,2.76,0,0,1,2.66,2.08,2.68,2.68,0,0,1-1.29,3.06.57.57,0,0,0-.32.78,5.7,5.7,0,0,0,2.65,3.63,10.56,10.56,0,0,1,3,2.36,7.6,7.6,0,0,1,1.62,4.42.65.65,0,0,0,.4.66,2.73,2.73,0,0,1,0,4.83.62.62,0,0,0-.38.66V51.41a.62.62,0,0,0,.36.68,2.66,2.66,0,0,1,1.39,3.11,2.72,2.72,0,0,1-2.71,2.08H3A2.79,2.79,0,0,1,1.59,52a.81.81,0,0,0,.25-.6q0-4.62,0-9.24c0-3.47,0-6.93,0-10.39a.67.67,0,0,0-.39-.72A2.59,2.59,0,0,1,0,28.66a2.62,2.62,0,0,1,1.47-2.44.65.65,0,0,0,.38-.67,7.42,7.42,0,0,1,3.28-5.93c.51-.35,1-.65,1.56-1A5.69,5.69,0,0,0,9.08,15.2a.6.6,0,0,0-.32-.83,2.66,2.66,0,0,1-1.27-3.06,2.74,2.74,0,0,1,2.67-2.07H12c0-1,0-1.87,0-2.79A6.42,6.42,0,0,1,17,.19,7.49,7.49,0,0,1,18.78,0H40.31a6.47,6.47,0,0,1,6.8,6.77v.62h1.77a2.77,2.77,0,0,1,2.85,2.85,2.65,2.65,0,0,0,0,.63.9.9,0,0,0,.3.52A2.82,2.82,0,0,1,53.58,14q0,5.72,0,11.43a.78.78,0,0,0,.46.8A2.72,2.72,0,0,1,54,31a.71.71,0,0,0-.43.75q0,8,0,15.88a.71.71,0,0,0,.43.76,2.68,2.68,0,0,1,1.42,2.64A1,1,0,0,0,56,52.25a2.43,2.43,0,0,1,1.23,2.16c0,.61,0,1.23,0,1.85a.93.93,0,0,1-1.05,1c-.63,0-1.27,0-1.9,0H32.78c-1.13,0-1.37-.25-1.37-1.4,0-.35,0-.69,0-1A2.85,2.85,0,0,1,33,52a.52.52,0,0,0,.24-.38,8.42,8.42,0,0,0,0-.87,2.67,2.67,0,0,1,1.44-2.34.65.65,0,0,0,.41-.65c0-5.37,0-10.74,0-16.11a.78.78,0,0,0-.33-.55,2.74,2.74,0,0,1-1.49-2.5,2.58,2.58,0,0,1,1.5-2.41c.35-.17.33-.4.33-.69,0-3.76,0-7.51,0-11.26a3,3,0,0,1,1.6-2.9.55.55,0,0,0,.24-.38,8.42,8.42,0,0,0,0-.87,2.77,2.77,0,0,1,2.7-2.7c.61,0,1.22,0,1.91,0a9,9,0,0,0,0-1,.9.9,0,0,0-1-.8H18.88c-1.06,0-1.33.26-1.33,1.32,0,.73,0,1.47,0,2.2A.67.67,0,0,0,17.62,9.24Zm8.22,22.22H3.74V51.71h22.1Zm11.15,0V44.31H51.7V31.44Zm14.74-5.6V14.23c0-1-.28-1.29-1.3-1.29H38.26c-1,0-1.31.27-1.31,1.29V25.84Zm-48,0H25.87a5.41,5.41,0,0,0-1.63-3.93,15,15,0,0,0-2.18-1.58,7.68,7.68,0,0,1-3.31-4.43c-.1-.35-.16-.7-.24-1.06H11a7.66,7.66,0,0,1-3.78,5.64,13.18,13.18,0,0,0-1.12.71A5.7,5.7,0,0,0,3.69,25.83Zm12-16.6c0-.91,0-1.78,0-2.64A2.76,2.76,0,0,1,18.62,3.7c1.73,0,3.46,0,5.19,0H40.38a2.79,2.79,0,0,1,3,3.05v.6h1.84c0-.38,0-.71,0-1a4.58,4.58,0,0,0-4.5-4.46c-7.46,0-14.93,0-22.39,0a4.34,4.34,0,0,0-4.14,2.81c-.65,1.47-.29,3-.37,4.55Zm-.92,20.34H26.33a2.7,2.7,0,0,0,.57,0,.92.92,0,0,0,0-1.82,3,3,0,0,0-.52,0H3.18a3,3,0,0,0-.52,0,.88.88,0,0,0-.8.91.87.87,0,0,0,.8.91,2.72,2.72,0,0,0,.57,0Zm.06,24H3.06c-.78,0-1.21.33-1.21.92s.43.92,1.21.93H26.33a2.72,2.72,0,0,0,.57,0,.86.86,0,0,0,.8-.9.87.87,0,0,0-.8-.91,2.7,2.7,0,0,0-.57,0Zm40.55,1.83c.13-1.59-.08-1.83-1.59-1.83H34.65a5.61,5.61,0,0,0-.58,0,.86.86,0,0,0-.79.79,7.07,7.07,0,0,0,0,1Zm-1.86-3.7c.16-1.2.09-1.86-1.56-1.84-4.23,0-8.46,0-12.69,0H36.16c-.71,0-1,.35-1.06,1.07v.75ZM44.3,29.57h7.91a4.51,4.51,0,0,0,.52,0,.91.91,0,0,0,.84-.94.89.89,0,0,0-.82-.89,3.53,3.53,0,0,0-.46,0H36.41a2.27,2.27,0,0,0-.52,0,.92.92,0,0,0,0,1.81,2.82,2.82,0,0,0,.58,0ZM37,46.22V48H51.69V46.22ZM38.8,11.05H49.88c0-.3,0-.57,0-.83a.91.91,0,0,0-1-1H39.79a.91.91,0,0,0-1,1C38.79,10.48,38.8,10.74,38.8,11.05Zm-24,0H10.39c-.73,0-1.15.34-1.15.92s.42.92,1.15.93h8.78c.72,0,1.15-.35,1.15-.93s-.42-.92-1.15-.92Z"/><path class="cls-1" d="M23.09,41.57a8.31,8.31,0,1,1-8.24-8.31A8.32,8.32,0,0,1,23.09,41.57Zm-8.31,6.48a6.47,6.47,0,1,0-6.47-6.39A6.5,6.5,0,0,0,14.78,48.05Z"/></g></g></svg>