<svg xmlns="http://www.w3.org/2000/svg" viewBox="0 0 21 21"><defs><style>.cls-1{fill:#3c3c3b;}</style></defs><g id="Capa_2" data-name="Capa 2"><g id="Capa_1-2" data-name="Capa 1"><path class="cls-1" d="M16.94,0H4.06A4.06,4.06,0,0,0,0,4.06V16.94A4.06,4.06,0,0,0,4.06,21H16.94A4.06,4.06,0,0,0,21,16.94V4.06A4.06,4.06,0,0,0,16.94,0ZM18.1,2.42h.47V6H15V2.43ZM7.5,8.34a3.69,3.69,0,1,1-.7,2.16A3.7,3.7,0,0,1,7.5,8.34ZM19,16.94a2,2,0,0,1-2,2H4.06a2,2,0,0,1-2-2V8.34H5.18a5.74,5.74,0,1,0,10.64,0H19Z"/></g></g></svg>