<svg xmlns="http://www.w3.org/2000/svg" viewBox="0 0 48.82 48.75"><defs><style>.cls-1{fill:#5c6d77;}</style></defs><g id="Capa_2" data-name="Capa 2"><g id="Capa_1-2" data-name="Capa 1"><path class="cls-1" d="M0,34.07c.19-.83.32-1.68.58-2.49A10.39,10.39,0,0,1,10,24.43a12.82,12.82,0,0,1,6,1.16.62.62,0,0,0,.69-.08,20.2,20.2,0,0,0,3.09-2.59Q31,11.67,42.24.46L42.65,0l6.17,6.16a2.52,2.52,0,0,0-.44.29Q36.62,18.18,24.88,29.92a18.36,18.36,0,0,0-1.73,2.27.62.62,0,0,0,0,.51,13.38,13.38,0,0,1,1.14,6.12,10.47,10.47,0,0,1-8.67,9.75l-1,.18h-2.1a1.67,1.67,0,0,0-.32-.08A14,14,0,0,1,.47,38.48C.26,37.73.15,36.94,0,36.17Zm10.05-3.79,3.52-2.52V27.6c-.86-.11-1.72-.28-2.58-.32A7.71,7.71,0,0,0,2.89,36a11.19,11.19,0,0,0,9.6,9.82,7.7,7.7,0,0,0,9-7.64,8.1,8.1,0,0,0-.46-3l-2.55,3.57ZM42.84,4.21l-20,19.88H24.7V26L44.62,6ZM18.09,34.32c1.06-1.47,2.06-3,3.21-4.45.76-.94.42-1.93.52-2.94-.71,0-1.35,0-2,0a.69.69,0,0,0-.35.11l-5,3.6Z"/></g></g></svg>