<svg xmlns="http://www.w3.org/2000/svg" viewBox="0 0 283.73 142.33"><defs><style>.cls-1{fill:#004dce;}</style></defs><g id="Capa_2" data-name="Capa 2"><g id="Capa_1-2" data-name="Capa 1"><path class="cls-1" d="M55.29.42l-.23,8.5h1.2l.37-2.44A13.64,13.64,0,0,1,57,4.89a2.82,2.82,0,0,1,.72-1.16A3.57,3.57,0,0,1,59.18,3a8.34,8.34,0,0,1,2.5-.3h1.83V29h4.35V2.66h1.55a10.14,10.14,0,0,1,2.5.26,4.64,4.64,0,0,1,1.58.72,2.86,2.86,0,0,1,.87,1.14,5.62,5.62,0,0,1,.38,1.68L75,8.92h1.2L76,.42Z"/><path class="cls-1" d="M98.45,22.86l0,.23A4.68,4.68,0,0,1,96.91,26a5.59,5.59,0,0,1-3.39.81h-4a7.23,7.23,0,0,1-1.21-.08.72.72,0,0,1-.5-.32,2.13,2.13,0,0,1-.24-.93c0-.46-.07-1.1-.07-1.9V15.18h4a3.75,3.75,0,0,1,2.76.79A3.41,3.41,0,0,1,95,18.41v.3h1.48V9.41H95v.3a5.94,5.94,0,0,1-.2,1.7,2,2,0,0,1-.56.93,2.28,2.28,0,0,1-1,.46,8.46,8.46,0,0,1-1.72.14h-4v-7c0-.75,0-1.35.07-1.8a2.72,2.72,0,0,1,.23-1,.84.84,0,0,1,.51-.36,5.29,5.29,0,0,1,1.21-.11h3.69a5.54,5.54,0,0,1,3.21.74,3.91,3.91,0,0,1,1.38,2.54l.54,3h1.28l-.5-8.5H79.49V1.86h.3a9.57,9.57,0,0,1,1.48.1,2.41,2.41,0,0,1,1,.39,1.84,1.84,0,0,1,.61.89A5.37,5.37,0,0,1,83.14,5V29H99.73l.32-6.14h-1.6Z"/><path class="cls-1" d="M124.31,24.45A14.68,14.68,0,0,0,125.73,20a34.09,34.09,0,0,0,.4-5.28,30,30,0,0,0-.53-5.77,13.62,13.62,0,0,0-1.81-4.69,8.9,8.9,0,0,0-3.43-3.12,13.32,13.32,0,0,0-10.74,0,8.9,8.9,0,0,0-3.43,3.12,13.55,13.55,0,0,0-1.81,4.69,29.25,29.25,0,0,0-.53,5.77,30,30,0,0,0,.43,5.24,14.57,14.57,0,0,0,1.42,4.37,9.4,9.4,0,0,0,2.66,3.23,9,9,0,0,0,4,1.71A9.35,9.35,0,0,0,113.57,31a7,7,0,0,0,2,1.53,10.39,10.39,0,0,0,2.79,1,17.11,17.11,0,0,0,3.82.37,10.29,10.29,0,0,0,3.81-.74l.19-.08V31.5l-.43.21a3.25,3.25,0,0,1-.45.15,3.36,3.36,0,0,1-.65.11,8.12,8.12,0,0,1-.95.05,9.41,9.41,0,0,1-2.63-.31,5.87,5.87,0,0,1-1.68-.74,3.75,3.75,0,0,1-1-1c-.18-.26-.36-.52-.52-.78a8.8,8.8,0,0,0,3.82-1.54A9.28,9.28,0,0,0,124.31,24.45Zm-2.94-9.74c0,1.62-.06,3.2-.19,4.74a14.18,14.18,0,0,1-.86,4,6.65,6.65,0,0,1-1.93,2.76,6.18,6.18,0,0,1-6.8,0,6.65,6.65,0,0,1-1.93-2.76,14.18,14.18,0,0,1-.86-4c-.13-1.54-.19-3.12-.19-4.74h0c0-1.62.06-3.18.19-4.7a14,14,0,0,1,.86-4,6.58,6.58,0,0,1,1.93-2.76,6.18,6.18,0,0,1,6.8,0A6.58,6.58,0,0,1,120.32,6a14,14,0,0,1,.86,4C121.31,11.53,121.37,13.09,121.37,14.71Z"/><path class="cls-1" d="M148.94,5V19a20.71,20.71,0,0,1-.24,3.39,6.55,6.55,0,0,1-.94,2.56,4.61,4.61,0,0,1-2,1.63,8.59,8.59,0,0,1-3.53.6,6.51,6.51,0,0,1-3.18-.67,4.89,4.89,0,0,1-1.84-1.8,8,8,0,0,1-.91-2.63,19.69,19.69,0,0,1-.24-3.08V.42h-8V1.86h.3a9.45,9.45,0,0,1,1.51.1,2.33,2.33,0,0,1,1,.39,1.83,1.83,0,0,1,.62.89A5.63,5.63,0,0,1,131.71,5V19a22.81,22.81,0,0,0,.34,4.12,7.36,7.36,0,0,0,1.46,3.33,7.19,7.19,0,0,0,3.18,2.19,15.11,15.11,0,0,0,5.36.78,14.35,14.35,0,0,0,5.3-.8,6.67,6.67,0,0,0,3-2.22,7.73,7.73,0,0,0,1.3-3.34,30.51,30.51,0,0,0,.27-4.06V.42h-3Z"/><path class="cls-1" d="M156.71,1.56v.3h.3a9.62,9.62,0,0,1,1.51.1,2.21,2.21,0,0,1,1,.39,1.71,1.71,0,0,1,.61.89A5.33,5.33,0,0,1,160.37,5h0V29h4.34V.42h-8Z"/><path class="cls-1" d="M188.52,20.59l-.38,2a13.83,13.83,0,0,1-.55,2,3.36,3.36,0,0,1-.79,1.26,3,3,0,0,1-1.29.7,7.54,7.54,0,0,1-2.12.25h-2.81a11.11,11.11,0,0,1-1.49-.08,1.28,1.28,0,0,1-.7-.29,1,1,0,0,1-.29-.62,9.51,9.51,0,0,1-.08-1.36V.42h-8V1.86h.3a9.79,9.79,0,0,1,1.49.1,2.37,2.37,0,0,1,1,.39,1.89,1.89,0,0,1,.61.89A5.34,5.34,0,0,1,173.68,5V29h15.58l.37-8.41h-1.11Z"/><path class="cls-1" d="M218.13,28.56q-.39-1.1-1.69-4.5c-.36-1-.81-2.16-1.35-3.55s-1.15-3.05-1.88-5-1.57-4.16-2.5-6.7-2-5.42-3.26-8.64L207.38,0H201V1.44h.3a4.71,4.71,0,0,1,2.12.32.53.53,0,0,1,.32.47.88.88,0,0,1,0,.21.7.7,0,0,0-.06.19q-2.26,5.89-3.85,10.13c-1.06,2.82-2,5.2-2.7,7.11s-1.34,3.46-1.77,4.61-.77,2-1,2.63-.42,1.09-.58,1.47l-.18.42h3.31v-.26c.1-.33,1.19-3.38,3.23-9h10.13c.31.84.58,1.57.82,2.2s.52,1.41.82,2.22.57,1.56.81,2.23l.93,2.4.07.19h4.57Zm-8.7-11.08h-8.51L205.2,5.83Z"/><path class="cls-1" d="M282.67,131.36a3.49,3.49,0,0,1-2.57,1.06,3.44,3.44,0,0,1-2.55-1.06,3.52,3.52,0,0,1-1.05-2.57,3.6,3.6,0,0,1,3.6-3.6,3.52,3.52,0,0,1,2.57,1,3.44,3.44,0,0,1,1.06,2.55,3.5,3.5,0,0,1-1.06,2.57m-4.76-4.76a3,3,0,0,0-.91,2.2,3,3,0,0,0,.9,2.21,3.1,3.1,0,0,0,4.41,0,3,3,0,0,0,.9-2.21,3,3,0,0,0-.9-2.2,3.09,3.09,0,0,0-4.4,0m2.13.2a2.92,2.92,0,0,1,1.08.14,1,1,0,0,1,.62,1,.87.87,0,0,1-.39.79,1.52,1.52,0,0,1-.58.19,1,1,0,0,1,.69.39,1.12,1.12,0,0,1,.21.62v.29c0,.09,0,.18,0,.29a.63.63,0,0,0,0,.21l0,.05h-.65a.06.06,0,0,1,0,0,.09.09,0,0,1,0,0l0-.12v-.32c0-.46-.12-.76-.37-.9a1.61,1.61,0,0,0-.78-.14h-.55v1.57h-.7v-4Zm.75.62a1.77,1.77,0,0,0-.84-.15h-.6v1.44H280a2.21,2.21,0,0,0,.67-.08.62.62,0,0,0,.41-.63.61.61,0,0,0-.27-.58"/><path class="cls-1" d="M8.92,91l1.3-3.33h5.23l.43,1.21c.89,2.54,2.62,3,3.59,3h.05a2.93,2.93,0,0,0,.88-.12.28.28,0,0,0,.19-.27V91a.29.29,0,0,0-.25-.29,1.59,1.59,0,0,1-1.11-.48,4.74,4.74,0,0,1-.86-1.59L14,77.15a.27.27,0,0,0-.25-.18h-.59a.27.27,0,0,0-.25.18L8.13,89.21c-.2.52-.38,1.05-1.24,1.05H4.12V79.83a3.88,3.88,0,0,0-.43-2.27A1.83,1.83,0,0,0,2.06,77H.27a.25.25,0,0,0-.19.09.28.28,0,0,0-.08.2v.43a.3.3,0,0,0,.08.2A.27.27,0,0,0,.27,78H.66c.55,0,.76.17.92.45a3,3,0,0,1,.21,1.41V91.41a.28.28,0,0,0,.08.2.24.24,0,0,0,.19.08H8c.4,0,.71-.18,1-.74m1.83-4.76L12.83,81l2,5.19Z"/><path class="cls-1" d="M8.92,91l1.3-3.33h5.23l.43,1.21c.89,2.54,2.62,3,3.59,3h.05a2.93,2.93,0,0,0,.88-.12.28.28,0,0,0,.19-.27V91a.29.29,0,0,0-.25-.29,1.59,1.59,0,0,1-1.11-.48,4.74,4.74,0,0,1-.86-1.59L14,77.15a.27.27,0,0,0-.25-.18h-.59a.27.27,0,0,0-.25.18L8.13,89.21c-.2.52-.38,1.05-1.24,1.05H4.12V79.83a3.88,3.88,0,0,0-.43-2.27A1.83,1.83,0,0,0,2.06,77H.27a.25.25,0,0,0-.19.09.28.28,0,0,0-.08.2v.43a.3.3,0,0,0,.08.2A.27.27,0,0,0,.27,78H.66c.55,0,.76.17.92.45a3,3,0,0,1,.21,1.41V91.41a.28.28,0,0,0,.08.2.24.24,0,0,0,.19.08H8c.4,0,.71-.18,1-.74m1.83-4.76L12.83,81l2,5.19Z"/><path class="cls-1" d="M267.5,125.78,241.13,61.64h-3.6l-26.8,63.18s-3.1,8.35-16.86,8.35H176.13V107.91c0-2.79,2.06-5.45,4.74-5.51h24.39V95.05h-24.1a5.35,5.35,0,0,1-5-5.55V72.1a5.62,5.62,0,0,1,5.63-5.57v-.1h13.43c9.59,0,15,4.2,15,13.79h2.39v-9c0-4.8-1.79-9.59-10.19-9.59H154.55v4.77H157c7.19,0,8.39,4.79,8.39,12v53.47c0,3-2.2,5.93-5.59,5v0c-4.05-1.78-7.29-5.37-11.46-12.33l-12.59-21c8.39-1.8,19.18-6.59,19.18-20.38,0-19.19-19.78-21.58-30-21.58H93.73v4.77h2.4c7.19,0,8.39,4.79,8.39,12v56.42c-1.83-1.95-3.39-4.83-5.13-9L73,61.64H69.42L43.87,121.86l0,0c-.54,1.21-1.14,3-2.49,3.52s-3.22,0-3.7-1.32V60.44c0-4.91,1.61-7.06,5.41-7.06H60.38V43.15H12.13c-8.4,0-10.2,5.73-10.2,10.53V67.17h2.4c0-9.59,5.4-13.79,15-13.79h6v77.39c0,5.25,3.79,10,10.38,10,3.5,0,5.61-.44,7.05-3.62L50.84,118h29a5.6,5.6,0,0,1,4.7,3l1.84,4.78c6.15,13.78,16,15.59,21.43,15.59,2.64,0,7.52-.6,7.52-.6v-28a5.39,5.39,0,0,1,5.61-5.21h5.45l9.33,17c7.79,13.19,13.19,17.39,21.58,17.39a43,43,0,0,0,8.83-1.2l37.88,0a8.71,8.71,0,0,0,8.46-6L218.94,118h29.21a5.62,5.62,0,0,1,4.76,3.11l2.6,4.68c6.9,13.94,15,15.59,20.39,15.59a18,18,0,0,0,4.8-.6v-2.4c-6.6-.6-9.48-3.59-13.2-12.59M74.94,113.17v0H52.63l15-34.77,11.72,28.32a4.86,4.86,0,0,1-4.4,6.43M124.31,100a32.1,32.1,0,0,1-3.47-.21v0a4.75,4.75,0,0,1-.54,0l-.17,0a5.64,5.64,0,0,1-4.82-4.5V65.87l9,0c6.59,0,18.58,4.8,18.58,17.39,0,12-12,16.78-18.58,16.78M243,113.17v0h-22.3l15-34.77,11.68,28.23a4.9,4.9,0,0,1-4.38,6.52"/><path class="cls-1" d="M267.5,126.15,241.13,62h-3.6l-26.8,63.18s-3.1,8.35-16.86,8.35H176.13V108.27c0-2.78,2.06-5.44,4.74-5.51h24.39V95.41h-24.1a5.34,5.34,0,0,1-5-5.55V72.47a5.63,5.63,0,0,1,5.63-5.58V66.8h13.43c9.59,0,15,4.19,15,13.78h2.39v-9c0-4.79-1.79-9.59-10.19-9.59H154.55v4.77H157c7.19,0,8.39,4.8,8.39,12v53.47c0,3-2.2,5.93-5.59,5v0c-4.05-1.77-7.29-5.36-11.46-12.32L135.7,104c8.39-1.8,19.18-6.6,19.18-20.39,0-19.18-19.78-21.58-30-21.58H93.73v4.77h2.4c7.19,0,8.39,4.8,8.39,12v56.42c-1.83-2-3.39-4.83-5.13-9L73,62H69.42L43.87,122.22l0,0c-.54,1.22-1.14,3-2.49,3.53s-3.22,0-3.7-1.32V60.8c0-4.91,1.61-7.06,5.41-7.06H60.38V43.51H12.13c-8.4,0-10.2,5.74-10.2,10.53V67.53h2.4c0-9.59,5.4-13.79,15-13.79h6v77.39c0,5.25,3.79,10,10.38,10,3.5,0,5.61-.44,7.05-3.63l8.07-19.16h29a5.63,5.63,0,0,1,4.7,3l1.84,4.78c6.15,13.78,16,15.59,21.43,15.59,2.64,0,7.52-.6,7.52-.6v-28a5.39,5.39,0,0,1,5.61-5.21h5.45l9.33,17c7.79,13.19,13.19,17.38,21.58,17.38a43,43,0,0,0,8.83-1.19l37.88,0a8.72,8.72,0,0,0,8.46-6l6.49-16.79h29.21a5.61,5.61,0,0,1,4.76,3.12l2.6,4.68c6.9,13.93,15,15.59,20.39,15.59a18,18,0,0,0,4.8-.6v-2.4c-6.6-.6-9.48-3.6-13.2-12.59M74.94,113.53v0H52.63l15-34.77L79.34,107.1a4.85,4.85,0,0,1-4.4,6.43m49.37-13.16a29.8,29.8,0,0,1-3.47-.22v0a4.75,4.75,0,0,1-.54,0l-.17,0a5.63,5.63,0,0,1-4.82-4.5V66.23l9,0c6.59,0,18.58,4.79,18.58,17.38,0,12-12,16.79-18.58,16.79M243,113.53v0h-22.3l15-34.77L247.41,107a4.89,4.89,0,0,1-4.38,6.51"/></g></g></svg>