<svg xmlns="http://www.w3.org/2000/svg" viewBox="0 0 562.45 106.65"><defs><style>.cls-1{fill:#fff;}</style></defs><g id="Capa_2" data-name="Capa 2"><g id="Capa_1-2" data-name="Capa 1"><path class="cls-1" d="M556.6,91.83a5.83,5.83,0,1,1-5.88,5.81,5.82,5.82,0,0,1,5.88-5.81m0,10.84a5,5,0,1,0-4.84-5,4.83,4.83,0,0,0,4.84,5m-2.28-8.42H557c1.63,0,2.39.66,2.39,2a1.75,1.75,0,0,1-1.78,1.87l1.93,3h-1.14l-1.85-3h-1.13v3h-1Zm1,3h1.13c.92,0,1.79-.05,1.78-1.1s-.77-1.06-1.5-1.06h-1.41Z"/><path class="cls-1" d="M94.65,91.83a5.83,5.83,0,1,1-5.86,5.81,5.81,5.81,0,0,1,5.86-5.81m0,10.84a5,5,0,1,0-4.81-5,4.82,4.82,0,0,0,4.81,5m-2.26-8.42H95c1.64,0,2.37.66,2.37,2a1.77,1.77,0,0,1-1.8,1.87l2,3H96.42l-1.86-3H93.43v3h-1Zm1,3h1.12c1,0,1.79-.05,1.79-1.1s-.76-1.06-1.49-1.06H93.43Z"/><path class="cls-1" d="M146.89,40a.86.86,0,0,1,.8.55c16.84,50.43,18.36,54.54,20,59.55a.89.89,0,0,1-.1.78.92.92,0,0,1-.69.35h-6.61a.87.87,0,0,1-.77-.54c-2.57-6.87-3.83-11.4-6.32-18.08h-19.6l-6.16,18a.84.84,0,0,1-.77.57h-6.53a.84.84,0,0,1-.79-1.13l20.28-59.55a.81.81,0,0,1,.79-.55ZM136.11,75.11h15l-7.43-22.86Z"/><path class="cls-1" d="M179.38,95.91a22.83,22.83,0,0,1-5.45-15.45V68.75a22.78,22.78,0,0,1,5.46-15.37,18.32,18.32,0,0,1,13.86-6.09A24.47,24.47,0,0,1,210,53.54a.81.81,0,0,1,.1,1.09L206.94,59a.8.8,0,0,1-1.28.06,16.16,16.16,0,0,0-12.41-5.2c-6.9,0-12.06,5.51-12.12,14.89V80.46c.06,10.42,5.91,15.06,12.47,15.11,5,0,11.07-3.27,11.08-10.34,0-.08,0-.17,0-.26,0-4.07,0-5.15,0-5.38V79.3h-11.9a.8.8,0,0,1-.81-.72l-.71-5a.93.93,0,0,1,.19-.66.85.85,0,0,1,.64-.28h18.83a.83.83,0,0,1,.59.24.86.86,0,0,1,.25.59c0,6.18,0,2.36,0,11.86s-7.94,16.75-18.15,16.75h0a18.7,18.7,0,0,1-14.19-6.17"/><path class="cls-1" d="M254.57,101.27a.86.86,0,0,1-.79-.54c-2.22-6-3.33-9.91-5.48-15.69H231.4l-5.35,15.66a.84.84,0,0,1-.8.57h-5.66a.89.89,0,0,1-.69-.35.84.84,0,0,1-.11-.78l17.66-51.86a.85.85,0,0,1,.8-.57h5.6v0a.85.85,0,0,1,.8.56c14.67,43.92,16,47.52,17.45,51.87a.92.92,0,0,1-.11.78.91.91,0,0,1-.67.35Zm-21-23h12.74L240,58.8Z"/><path class="cls-1" d="M278.12,101.27a.81.81,0,0,1-.79-.6L261.12,48.78a.81.81,0,0,1,.12-.76.85.85,0,0,1,.67-.31h5.81a.83.83,0,0,1,.8.59L282,91.86,295.55,48.3a.8.8,0,0,1,.79-.59h5.76v0a.83.83,0,0,1,.77,1.07l-16.13,51.89a.81.81,0,0,1-.8.6Z"/><path class="cls-1" d="M312.42,101.27a.86.86,0,0,1-.59-.27.76.76,0,0,1-.24-.56V48.54a.85.85,0,0,1,.24-.6.86.86,0,0,1,.59-.23h29.45a.84.84,0,0,1,.57.23.86.86,0,0,1,.25.6v5.2a.79.79,0,0,1-.26.59.76.76,0,0,1-.56.24H318.59V71.05h21.13a.89.89,0,0,1,.84.85v5.19a.79.79,0,0,1-.27.57.82.82,0,0,1-.57.26H318.59v16.4h23a.81.81,0,0,1,.82.72l.7,5.29a.86.86,0,0,1-.2.65.84.84,0,0,1-.61.29Z"/><path class="cls-1" d="M408.55,101.24a.8.8,0,0,1-.78-.51c-2.56-6.87-3.83-11.4-6.32-18.08H381.88l-6.18,18a.83.83,0,0,1-.78.54h-6.53a.83.83,0,0,1-.68-.34.85.85,0,0,1-.11-.76l20.28-59.55a.84.84,0,0,1,.8-.55h6.44v0a.83.83,0,0,1,.78.55C412.76,91,414.27,95.13,416,100.15a.88.88,0,0,1-.14.77.83.83,0,0,1-.67.32ZM384.33,75.11h15l-7.45-22.83Z"/><path class="cls-1" d="M423.91,101.24a.86.86,0,0,1-.81-.6l-1.59-6.39a.8.8,0,0,1,.13-.66c6.76-10,19.88-28.81,26.94-39H424.75a.82.82,0,0,1-.81-.63l-1.26-5.27a.79.79,0,0,1,.17-.72.83.83,0,0,1,.64-.3h33.57a.79.79,0,0,1,.57.23.86.86,0,0,1,.25.6l0,5.21-.13.45C452.9,61.31,438.44,82,430,94.38H456.7a1,1,0,0,1,.58.24,1,1,0,0,1,.24.62v5.2a1,1,0,0,1-.24.59,1,1,0,0,1-.58.21Z"/><path class="cls-1" d="M472.66,96.16A20,20,0,0,1,467,81.57v-33a.78.78,0,0,1,.25-.59.77.77,0,0,1,.58-.24h5.4a.86.86,0,0,1,.59.23.91.91,0,0,1,.26.6c0,.74,0,32.21,0,33,.05,8,4.61,13.4,12.26,13.45,7.34,0,11.8-5.51,11.84-13.45v-33a.82.82,0,0,1,.25-.6.83.83,0,0,1,.6-.23h5.39a.88.88,0,0,1,.6.23.94.94,0,0,1,.24.6V81.71c0,12-8.73,19.8-18.84,19.82a19.3,19.3,0,0,1-13.73-5.37"/><path class="cls-1" d="M517.55,101.27A.84.84,0,0,1,517,101a.81.81,0,0,1-.24-.56V48.54a.8.8,0,0,1,.83-.83H523a.92.92,0,0,1,.6.23.93.93,0,0,1,.23.6v46H547a.82.82,0,0,1,.64.3.78.78,0,0,1,.18.68l-.9,5a.83.83,0,0,1-.8.7Z"/><path class="cls-1" d="M140,31.73h-.61V10.3h7.37a7.31,7.31,0,0,1,5.33,2.35,9.56,9.56,0,0,1,2.17,6.47v3.94A9.36,9.36,0,0,1,152,29.49a7.41,7.41,0,0,1-5.32,2.24Zm2.68-3.2h4c3.09-.09,3.91-1.94,4.14-5.46V19.13c-.23-3.52-1-5.5-4.14-5.58h-4Z"/><path class="cls-1" d="M166.05,31.73V10.34h12.7v3.24h-9.38V19.4h8.53v3.27h-8.53v5.75h9.19l.07.55.36,2.75Z"/><path class="cls-1" d="M196.51,32.06a18.84,18.84,0,0,1-6.19-1.26l-.48-.18.07-.49.28-2.26.09-.89.8.43a13.5,13.5,0,0,0,5.67,1.5c2-.05,3.26-.59,3.5-2.6a1.75,1.75,0,0,0,0-.39,2.76,2.76,0,0,0-2.14-2.73c-1.31-.48-2.8-.82-4.37-1.29a5.58,5.58,0,0,1-4.33-5.48,7.12,7.12,0,0,1,.14-1.35c.67-3.55,4.09-4.94,7.28-4.92a11.09,11.09,0,0,1,5.64,1.47l.3.2,0,.37-.2,3.29-.92-.69a9.47,9.47,0,0,0-4.89-1.52h-.34c-1.78.12-3.14.91-3.49,2.29a5,5,0,0,0-.09.81A2.67,2.67,0,0,0,195,19c1.47.45,3.44,1,4.88,1.49a5.5,5.5,0,0,1,3.9,5.32,7.49,7.49,0,0,1-.22,1.71c-.8,3.23-3.77,4.56-6.95,4.56h-.11"/><path class="cls-1" d="M218.23,31.73V13.43h-5.06a.6.6,0,0,1-.44-.16.61.61,0,0,1-.18-.46s0-2.47,0-2.47h14.71v3.09h-5.7c0,3.56,0,18.3,0,18.3Z"/><path class="cls-1" d="M239.47,10.34h0a.52.52,0,0,1,.44.19.59.59,0,0,1,.19.42V31.76h-3.36V10.34Z"/><path class="cls-1" d="M252.19,31.76V10.34h3.37V28.52c3.4,0,9.43,0,9.43,0l-.59,3.24Z"/><path class="cls-1" d="M282.82,10.34,290,31.76h-3.52s-1.41-4.2-2.2-6.33h-6.14L276,31.76h-3.54l7.28-21.42Zm-3.63,11.87h4.12l-2-6.31Z"/><path class="cls-1" d="M387.35,10.34l7.19,21.42H391s-1.44-4.2-2.21-6.33h-6.15l-2.14,6.33H377l7.29-21.42Zm-3.64,11.87h4.13l-2-6.31Z"/><path class="cls-1" d="M300.44,31.73V10.3h7.4a7.34,7.34,0,0,1,5.32,2.34,9.72,9.72,0,0,1,2.17,6.48v3.94a9.46,9.46,0,0,1-2.18,6.43,7.4,7.4,0,0,1-5.31,2.24h-7.4Zm3.32-3.2h4c3.08-.09,3.9-1.94,4.13-5.46V19.14c-.22-3.53-1.06-5.51-4.12-5.59h-4Z"/><path class="cls-1" d="M326.36,23.1v-4c0-5.51,3.49-9,8-8.94s8.17,3.38,8.17,8.94v4c0,5.45-3.57,8.94-8.09,9s-8.09-3.48-8.09-8.9m8.14,5.73c3.14,0,4.51-2.25,4.58-5.86.07,0-.05,0,0-.09,0-.28,0-3.36,0-3.63l0-.11c-.05-3.53-1.47-5.83-4.65-5.87s-4.59,2.36-4.65,6v3.64c.07,3.64,1.53,5.9,4.73,5.95"/><path class="cls-1" d="M367.85,31.05l0,.66h-.59a.3.3,0,0,1-.2.07,3.19,3.19,0,0,1-.87.12h-.05a3.8,3.8,0,0,1-3.13-1.73,33.45,33.45,0,0,1-1.91-3.61c-.8-1.7-1.74-3.17-2.61-3.11h-2v8.32h-3.35V10.33h.64c2.67,0,3.45,0,7,0a6.3,6.3,0,0,1,6.26,6.48A6.35,6.35,0,0,1,362.81,23c.05.07.09.1.1.14,1.23,1.9,1.85,3.67,2.82,5.17a.9.9,0,0,0,.75.43,1.32,1.32,0,0,0,.39-.1l.79-.27,0,.83Zm-7.22-10.83a3.31,3.31,0,0,0,3.14-3.44,3.08,3.08,0,0,0-2.94-3.23h-4.29v6.67Z"/><path class="cls-1" d="M106.65,53.34a53.33,53.33,0,1,0-53.32,53.31,53.35,53.35,0,0,0,53.32-53.31M71.51,82.75,77.42,66a9.46,9.46,0,0,1,5.13-5.57l16.24-6.17ZM68.6,84.57c-.73,2.05-5.81,5-9.72,6.31,3.6-5.38,7-16.2,7-16.2l-2-13c-.59-3.68.42-5.61,2.86-8.9L86.57,31.29ZM7.79,54.23,24,60.4c2.4,1,3.95,2.83,5.12,5.57l5.92,16.78ZM38,84.57,20,31.29,39.79,52.81c2.44,3.29,3.45,5.22,2.85,8.9l-2,13s3.42,10.82,7,16.2c-3.89-1.28-9-4.26-9.68-6.31m15.27,7.32c-2.56,0-3.62-.68-5.27-4.18-1.13-2.52-2.47-5.93-2.82-7-.36-.84-2.07-5.74-2.28-6.54L53.29,15l0-.21h.07l0,.21,10.38,59.2c-.22.8-1.9,5.7-2.28,6.54-.35,1-1.68,4.46-2.82,7-1.65,3.48-2.7,4.18-5.25,4.18h0Z"/></g></g></svg>