<svg xmlns="http://www.w3.org/2000/svg" viewBox="0 0 324.78 61.58"><defs><style>.cls-1{fill:#025ea9;}</style></defs><g id="Capa_2" data-name="Capa 2"><g id="Capa_1-2" data-name="Capa 1"><path class="cls-1" d="M321.4,53a3.37,3.37,0,1,1-3.4,3.35A3.36,3.36,0,0,1,321.4,53m0,6.26a2.88,2.88,0,1,0-2.8-2.91,2.79,2.79,0,0,0,2.8,2.91m-1.32-4.87h1.52c.94,0,1.38.39,1.38,1.14a1,1,0,0,1-1,1.08l1.12,1.74h-.66l-1.07-1.71h-.65v1.71h-.6Zm.6,1.76h.66c.53,0,1,0,1-.64s-.45-.61-.87-.61h-.82Z"/><path class="cls-1" d="M54.65,53a3.37,3.37,0,1,1-3.38,3.35A3.35,3.35,0,0,1,54.65,53m0,6.26a2.88,2.88,0,1,0-2.77-2.91,2.79,2.79,0,0,0,2.77,2.91m-1.3-4.87h1.52c1,0,1.37.39,1.37,1.14a1,1,0,0,1-1,1.08l1.14,1.74h-.66L54.6,56.67H54v1.71h-.6Zm.6,1.76h.65c.54,0,1,0,1-.64s-.44-.61-.86-.61H54Z"/><path class="cls-1" d="M84.82,23.12a.49.49,0,0,1,.46.32C95,52.56,95.88,54.93,96.85,57.83a.51.51,0,0,1-.06.45.54.54,0,0,1-.4.2H92.58a.48.48,0,0,1-.45-.32c-1.49-4-2.21-6.58-3.65-10.43H77.16L73.61,58.15a.49.49,0,0,1-.45.33H69.39a.52.52,0,0,1-.39-.2.49.49,0,0,1-.06-.45l11.7-34.39a.48.48,0,0,1,.46-.32ZM78.59,43.37h8.64l-4.29-13.2Z"/><path class="cls-1" d="M103.58,55.38a13.13,13.13,0,0,1-3.14-8.92c0-.42,0-6.32,0-6.76a13.12,13.12,0,0,1,3.16-8.87,10.57,10.57,0,0,1,8-3.53,14.14,14.14,0,0,1,9.69,3.62.47.47,0,0,1,.06.63l-1.84,2.52a.53.53,0,0,1-.36.2.47.47,0,0,1-.38-.17,9.32,9.32,0,0,0-7.17-3c-4,0-7,3.18-7,8.6v6.76c0,6,3.41,8.7,7.2,8.72,2.87,0,6.39-1.88,6.4-6a.65.65,0,0,1,0-.14V45.92a.78.78,0,0,0,0-.13h-6.87a.47.47,0,0,1-.47-.42l-.41-2.88a.57.57,0,0,1,.12-.39.48.48,0,0,1,.36-.15h10.88a.51.51,0,0,1,.34.13.48.48,0,0,1,.14.35v6.84c0,5.57-4.58,9.67-10.48,9.67h0a10.79,10.79,0,0,1-8.2-3.56"/><path class="cls-1" d="M147,58.48a.5.5,0,0,1-.46-.32c-1.28-3.43-1.92-5.72-3.16-9.06h-9.76l-3.09,9a.49.49,0,0,1-.46.33H126.8a.54.54,0,0,1-.4-.2.49.49,0,0,1-.06-.45l10.19-29.95a.49.49,0,0,1,.46-.33h3.24v0a.5.5,0,0,1,.46.32c8.48,25.36,9.24,27.44,10.08,30a.55.55,0,0,1-.06.45.57.57,0,0,1-.39.2ZM134.89,45.19h7.35L138.59,34Z"/><path class="cls-1" d="M160.59,58.48a.47.47,0,0,1-.45-.35l-9.36-30a.47.47,0,0,1,.07-.44.48.48,0,0,1,.38-.18h3.36a.47.47,0,0,1,.46.34L162.83,53l7.83-25.15a.47.47,0,0,1,.46-.34h3.32v0a.48.48,0,0,1,.45.62l-9.31,30a.48.48,0,0,1-.47.35Z"/><path class="cls-1" d="M180.4,58.48a.5.5,0,0,1-.34-.16.43.43,0,0,1-.14-.32V28a.5.5,0,0,1,.14-.35.51.51,0,0,1,.34-.13h17a.51.51,0,0,1,.33.13.5.5,0,0,1,.14.35v3a.45.45,0,0,1-.15.34.43.43,0,0,1-.32.14H184c0,3.36,0,5.75,0,9.52h12.2a.47.47,0,0,1,.33.14.45.45,0,0,1,.15.35v3a.44.44,0,0,1-.15.33.48.48,0,0,1-.33.15H184v9.47h13.27a.47.47,0,0,1,.47.42l.41,3.06a.46.46,0,0,1-.12.37.49.49,0,0,1-.35.17Z"/><path class="cls-1" d="M235.91,58.46a.46.46,0,0,1-.45-.29c-1.48-4-2.21-6.59-3.65-10.44h-11.3l-3.57,10.42a.48.48,0,0,1-.45.31h-3.77a.49.49,0,0,1-.39-.19.5.5,0,0,1-.07-.44L224,23.44a.48.48,0,0,1,.46-.32h3.72v0a.47.47,0,0,1,.45.32c9.73,29.12,10.61,31.49,11.58,34.39a.52.52,0,0,1-.08.45.5.5,0,0,1-.39.18Zm-14-15.09h8.64l-4.29-13.18Z"/><path class="cls-1" d="M244.78,58.46a.48.48,0,0,1-.46-.35l-.92-3.69a.43.43,0,0,1,.07-.38c3.9-5.8,11.48-16.63,15.56-22.5H245.27a.47.47,0,0,1-.47-.36l-.73-3a.46.46,0,0,1,.1-.42.48.48,0,0,1,.37-.17h19.38a.49.49,0,0,1,.33.13.46.46,0,0,1,.14.35v3l-.08.26c-2.78,4.1-11.13,16-16,23.2h15.43a.57.57,0,0,1,.33.14.55.55,0,0,1,.14.36v3a.59.59,0,0,1-.14.34.61.61,0,0,1-.33.12Z"/><path class="cls-1" d="M272.93,55.53a11.57,11.57,0,0,1-3.28-8.43V28a.5.5,0,0,1,.48-.48h3.12a.48.48,0,0,1,.49.48v19c0,4.61,2.66,7.74,7.07,7.77,4.24,0,6.81-3.19,6.84-7.77V28a.5.5,0,0,1,.14-.35.52.52,0,0,1,.35-.13h3.12a.53.53,0,0,1,.34.13.55.55,0,0,1,.14.35V47.18c0,6.94-5,11.44-10.88,11.45a11.19,11.19,0,0,1-7.93-3.1"/><path class="cls-1" d="M298.85,58.48a.52.52,0,0,1-.34-.16.45.45,0,0,1-.13-.32V28a.49.49,0,0,1,.13-.35.53.53,0,0,1,.34-.13H302a.56.56,0,0,1,.35.13.54.54,0,0,1,.13.35V54.59h13.36a.48.48,0,0,1,.47.57l-.51,2.91a.49.49,0,0,1-.47.41Z"/><path class="cls-1" d="M80.82,18.32h-.36V6h4.26A4.26,4.26,0,0,1,87.8,7.3,5.54,5.54,0,0,1,89.05,11v2.28A5.42,5.42,0,0,1,87.79,17a4.27,4.27,0,0,1-3.07,1.29Zm1.55-1.85h2.31c1.79,0,2.26-1.12,2.39-3.15V11.05c-.13-2-.61-3.18-2.39-3.22H82.37Z"/><path class="cls-1" d="M95.88,18.32V6h7.33V7.84H97.8V11.2h4.93V13.1H97.8v3.32h5.3l.05.31.2,1.59Z"/><path class="cls-1" d="M113.47,18.51a11,11,0,0,1-3.57-.72l-.28-.11,0-.28.16-1.3.06-.52.46.25a7.77,7.77,0,0,0,3.27.86c1.14,0,1.88-.34,2-1.5a.86.86,0,0,0,0-.22,1.59,1.59,0,0,0-1.24-1.58c-.75-.28-1.62-.47-2.52-.74a3.23,3.23,0,0,1-2.5-3.17,3.56,3.56,0,0,1,.08-.78c.39-2,2.36-2.85,4.2-2.84a6.43,6.43,0,0,1,3.26.85l.17.12V7L117,8.94l-.54-.4a5.38,5.38,0,0,0-2.82-.88h-.19a2,2,0,0,0-2,1.32,2.79,2.79,0,0,0,0,.47,1.54,1.54,0,0,0,1.25,1.5c.85.26,2,.57,2.81.86a3.18,3.18,0,0,1,2.26,3.07,4.63,4.63,0,0,1-.13,1c-.46,1.87-2.18,2.63-4,2.63h-.07"/><path class="cls-1" d="M126,18.32V7.75h-2.92a.31.31,0,0,1-.25-.09.36.36,0,0,1-.11-.26s0-1.43,0-1.43h8.49V7.75h-3.29V18.32Z"/><path class="cls-1" d="M138.28,6h0a.27.27,0,0,1,.25.11.33.33,0,0,1,.11.25v12H136.7V6Z"/><path class="cls-1" d="M145.63,18.34V6h1.94v10.5H153l-.33,1.87Z"/><path class="cls-1" d="M163.31,6l4.15,12.37h-2s-.81-2.43-1.27-3.66h-3.54l-1.24,3.66h-2.05L161.53,6Zm-2.09,6.85h2.37l-1.17-3.64Z"/><path class="cls-1" d="M223.67,6l4.15,12.37h-2s-.83-2.43-1.28-3.66H221l-1.23,3.66h-2L221.89,6Zm-2.1,6.85H224l-1.18-3.64Z"/><path class="cls-1" d="M173.48,18.32V6h4.27a4.25,4.25,0,0,1,3.07,1.35A5.61,5.61,0,0,1,182.08,11v2.28A5.45,5.45,0,0,1,180.82,17a4.23,4.23,0,0,1-3.06,1.29h-4.28Zm1.93-1.85h2.3c1.78,0,2.25-1.12,2.39-3.15V11.05c-.13-2-.62-3.18-2.38-3.22h-2.31Z"/><path class="cls-1" d="M188.45,13.34V11c0-3.18,2-5.19,4.63-5.17s4.72,2,4.72,5.17v2.29c0,3.15-2.07,5.16-4.68,5.17s-4.67-2-4.67-5.14m4.7,3.31c1.82,0,2.61-1.3,2.65-3.39,0,0,0,0,0,0s0-1.94,0-2.09l0-.07c0-2-.85-3.36-2.68-3.39s-2.66,1.37-2.69,3.45v2.1c0,2.11.89,3.41,2.73,3.44"/><path class="cls-1" d="M212.41,17.93l0,.38h-.34s-.07,0-.12,0a1.92,1.92,0,0,1-.5.07h0a2.19,2.19,0,0,1-1.81-1,17.86,17.86,0,0,1-1.1-2.08c-.46-1-1-1.84-1.51-1.8h-1.15v4.8H204V6h4.41A3.64,3.64,0,0,1,212,9.71a3.69,3.69,0,0,1-2.47,3.55l.06.08c.71,1.09,1.07,2.12,1.62,3a.53.53,0,0,0,.44.24.63.63,0,0,0,.22-.05l.46-.16,0,.48Zm-4.17-6.26a1.9,1.9,0,0,0,1.81-2,1.77,1.77,0,0,0-1.69-1.86h-2.48v3.84Z"/><path class="cls-1" d="M61.59,30.8a30.8,30.8,0,1,0-30.8,30.78A30.81,30.81,0,0,0,61.59,30.8m-20.3,17,3.41-9.69a5.5,5.5,0,0,1,3-3.21l9.38-3.56Zm-1.68,1C39.19,50,36.26,51.74,34,52.48c2.08-3.11,4-9.36,4-9.36l-1.14-7.49c-.34-2.12.25-3.24,1.66-5.13L50,18.07ZM4.5,31.32l9.38,3.56a5.51,5.51,0,0,1,3,3.21l3.42,9.69ZM22,48.83,11.56,18.07,23,30.49c1.41,1.9,2,3,1.64,5.14l-1.13,7.49s2,6.25,4.05,9.36C25.29,51.74,22.35,50,22,48.83m8.82,4.23c-1.48,0-2.09-.39-3.05-2.41-.65-1.46-1.42-3.43-1.62-4s-1.2-3.31-1.32-3.77l6-34.19,0-.11h0l0,.11,6,34.19c-.12.46-1.09,3.29-1.31,3.77s-1,2.58-1.63,4c-1,2-1.56,2.41-3,2.41h0Z"/></g></g></svg>