<svg xmlns="http://www.w3.org/2000/svg" viewBox="0 0 67.35 90.38"><defs><style>.cls-1{fill:#fff;}</style></defs><g id="Capa_2" data-name="Capa 2"><g id="Capa_1-2" data-name="Capa 1"><path class="cls-1" d="M63,17.14A33.66,33.66,0,0,0,0,33.67a29.65,29.65,0,0,0,.27,3.92A33,33,0,0,0,4.39,50.24c1.86,3.76,4.08,7.38,6.3,10.94C16.34,70.28,23.1,78.75,29.92,87c.19.24,1.42,1.61,2.42,2.77a1.76,1.76,0,0,0,2.67,0c1-1.16,2.23-2.53,2.42-2.77C44.25,78.75,51,70.28,56.66,61.18A128.47,128.47,0,0,0,63.06,50a33,33,0,0,0,4.29-16.36A33.46,33.46,0,0,0,63,17.14ZM51,44l-.05.1a17.63,17.63,0,0,1-1.69,2.37l-.1.12a20.12,20.12,0,0,1-30.87,0A18,18,0,0,1,16.33,44,20.15,20.15,0,1,1,51.22,23.78,20,20,0,0,1,51,44Z"/></g></g></svg>